<?xml version="1.0" encoding="iso-8859-1"?>
<!-- Uploaded to: SVG Repo, www.svgrepo.com, Generator: SVG Repo Mixer Tools -->
<svg height="800px" width="800px" version="1.1" id="Layer_1" xmlns="http://www.w3.org/2000/svg" xmlns:xlink="http://www.w3.org/1999/xlink" 
	 viewBox="0 0 512.001 512.001" xml:space="preserve">
<path style="fill:#328777;" d="M120.137,362.18c0,0-51.263,32.177-90.684,114.047c-5.754,11.952-0.291,26.294,11.943,31.421
	l6.058,2.539c13.1,5.489,28.055-1.974,31.452-15.766c7.368-29.92,26.528-80.035,57.596-100.649L120.137,362.18z"/>
<path style="fill:#266659;" d="M136.504,393.773l-16.365-31.592c0,0-17.175,10.782-39.287,35.739
	c9.452,6.487,21.227,14.598,30.755,21.26C118.822,408.934,127.115,400.001,136.504,393.773z"/>
<path style="fill:#7CD8A4;" d="M443.495,22.283c52.136,45.822-64.107,144.897-43.263,155.264
	c20.845,10.367,76.301-51.468,76.301-51.468l2.634,50.022c-22.699,32.056-54.836,57.083-76.134,71.557
	c-8.43,5.729-2.809,19,7.147,16.812c33.609-7.385,73.898-39.675,73.898-39.675l-19.087,52.013
	c-39.739,42.646-98.917,53.894-132.833,56.719c-7.543,0.628-8.715,11.174-1.503,13.469c37.556,11.953,77.349-1.561,77.349-1.561
	l-33.201,52.925c-44.044,22.934-103.979,15.848-136.489,9.377c-6.728-1.34-10.682,7.279-5.298,11.531
	c33.925,26.79,66.19,24.709,66.19,24.709c-129.994,64.377-172.227-64.828-172.227-64.828l-3.237-2.845
	c0,0-132.856-23.568-83.167-159.634c0,0,1.8,27.931,26.958,56.146c6.02,6.751,16.978,0.476,14.288-8.159
	c-10.164-32.635-21.481-85.793-5.712-128.814l48.224-39.721c0,0-6.443,32.005,3.447,64.048c3.075,9.966,17.826,7.748,17.811-2.681
	c-0.047-34.927,6.451-86.824,39.484-126.692L234.21,5.192c0,0-47.523,78.057-23.205,107.196c0,0,25.309-65.406,72.129-108.577
	L333.081,0c0,0-54.204,62.936-41.246,82.278c12.958,19.341,96.289-108.66,148.424-62.839L443.495,22.283z"/>
<path style="fill:#3EAC92;" d="M456.364,274.572c-48.789,21.935-100.4,24.921-153.397,8.878
	c-25.952-7.856-45.902-18.609-56.738-25.21l46.339-52.619c9.851,5.391,28.148,13.771,52.239,17.586
	c7.474,1.184,15.84,1.958,24.942,1.958c25.938,0,57.824-6.313,91.853-27.397c6.207-6.794,12.156-14.028,17.566-21.668l-0.429-8.137
	c-1.683,0.032-3.37,0.591-4.787,1.725c-39.882,31.93-82.265,44.724-125.969,38.012c-19.704-3.024-35.288-9.542-44.65-14.304
	l145.63-165.363c-1.567-1.996-3.381-3.916-5.468-5.75l-3.237-2.845c-0.922-0.81-1.856-1.561-2.797-2.265l-146.68,166.557
	c-5.712-7.739-15.799-23.475-22.22-45.324c-12.544-42.688-5.369-86.592,21.326-130.491c0.894-1.469,1.244-3.114,1.12-4.707
	l-7.875,0.601c-7.191,6.631-13.872,13.787-20.035,21.149c-21.745,48.728-17.852,90.179-9.706,117.905
	c7.869,26.777,20.688,45.265,26.729,52.97l-46.209,52.471c-7.35-8.767-22.438-28.523-34.892-56.211
	c-22.714-50.499-26.379-102.065-10.89-153.267c0.942-3.114-0.133-6.357-2.47-8.331l-0.581,0.302
	c-7.168,8.652-13.083,17.87-17.957,27.358c-11.153,58.403,2.847,108.09,17.733,140.981c14.154,31.274,31.131,52.673,38.488,61.169
	l-44.919,51.006c-17.139-23.057-75.956-107.402-79.225-182.994c-0.144-3.33-2.322-6.1-5.293-7.13l-10.459,8.615
	c1.871,39.143,17.093,84.225,45.262,134.018c16.52,29.201,32.55,51.109,39.032,59.621l-13.686,15.541
	c-0.964,0.068-1.879,0.306-2.717,0.688C138,340.01,80.843,336.818,36.414,262.409c-1.36-2.276-3.682-3.615-6.137-3.82
	c-0.908,8.138-1.041,15.736-0.514,22.824c27.306,40.599,58.175,58.615,80.034,66.585c16.055,5.853,29.531,7.268,37.752,7.467
	c1.253,8.128,4.39,21.316,12.255,36.483c10.571,20.386,31.96,48.221,74.594,69.967c7.577-0.197,15.624-1.181,24.162-3.097
	c-0.627-2.195-2.195-4.103-4.454-5.083c-37.164-16.132-64.773-39.734-79.844-68.255c-7.394-13.993-10.133-26.076-11.147-32.867
	l17.028-19.336c10.967,6.156,32.92,17.81,60.715,29.109c46.262,18.806,87.695,28.293,123.46,28.293
	c5.363,0,10.602-0.218,15.709-0.645l6.926-11.041c-1.312-3.029-4.443-5.023-7.926-4.736
	c-72.242,6.195-158.999-37.166-188.168-53.146l44.754-50.818c10.982,6.919,32.807,19.141,62.185,28.109
	c19.26,5.879,43.658,10.819,71.277,10.819c22.255,0,46.606-3.233,72.027-11.743c8.442-5.904,16.501-12.742,23.888-20.669
	l0.217-0.591C462.956,273.95,459.453,273.184,456.364,274.572z"/>
<g style="opacity:0.18;">
	<path style="fill:#328777;" d="M403.798,247.659c21.299-14.475,53.435-39.501,76.134-71.557l-2.634-50.022
		c0,0-55.456,61.836-76.301,51.468c-18.384-9.143,69.856-87.283,55.188-137.039c-111.59,173.902-250.982,281.898-331.08,336.323
		l2.64,2.32c0,0,42.233,129.205,172.227,64.828c0,0-32.265,2.079-66.19-24.71c-5.383-4.252-1.43-12.869,5.297-11.531
		c32.509,6.47,92.444,13.558,136.489-9.377l33.201-52.925c0,0-39.793,13.514-77.349,1.561c-7.213-2.295-6.041-12.841,1.503-13.469
		c33.915-2.826,93.092-14.073,132.833-56.719l19.087-52.013c0,0-40.289,32.29-73.898,39.675
		C400.989,266.659,395.368,253.388,403.798,247.659z"/>
</g>
</svg>